<?xml version="1.0" encoding="UTF-8" standalone="no"?>
<!-- Created with Inkscape (http://www.inkscape.org/) -->

<svg
   width="400"
   height="400"
   viewBox="0 0 235.29412 235.29412"
   version="1.1"
   id="svg1"
   inkscape:version="1.4 (e7c3feb100, 2024-10-09)"
   sodipodi:docname="flat1-color-green.svg"
   xmlns:inkscape="http://www.inkscape.org/namespaces/inkscape"
   xmlns:sodipodi="http://sodipodi.sourceforge.net/DTD/sodipodi-0.dtd"
   xmlns="http://www.w3.org/2000/svg"
   xmlns:svg="http://www.w3.org/2000/svg">
  <sodipodi:namedview
     id="namedview1"
     pagecolor="#ffffff"
     bordercolor="#000000"
     borderopacity="0.25"
     inkscape:showpageshadow="2"
     inkscape:pageopacity="0.0"
     inkscape:pagecheckerboard="0"
     inkscape:deskcolor="#d1d1d1"
     inkscape:document-units="mm"
     inkscape:clip-to-page="true"
     inkscape:zoom="1.629846"
     inkscape:cx="106.75855"
     inkscape:cy="190.20202"
     inkscape:window-width="1920"
     inkscape:window-height="1149"
     inkscape:window-x="0"
     inkscape:window-y="0"
     inkscape:window-maximized="1"
     inkscape:current-layer="layer1" />
  <defs
     id="defs1">
    <linearGradient
       id="swatch83"
       inkscape:swatch="solid">
      <stop
         style="stop-color:#000000;stop-opacity:1;"
         offset="0"
         id="stop83" />
    </linearGradient>
    <inkscape:path-effect
       effect="fill_between_many"
       method="bsplinespiro"
       autoreverse="false"
       close="false"
       join="false"
       linkedpaths="#path1582,0,1"
       id="path-effect1619"
       is_visible="true"
       lpeversion="0" />
    <inkscape:path-effect
       effect="taper_stroke"
       start_shape="center | center"
       end_shape="center | center"
       id="path-effect1618"
       is_visible="true"
       lpeversion="1"
       stroke_width="1"
       subpath="1"
       attach_start="0"
       end_offset="0.2"
       start_smoothing="0.5"
       end_smoothing="0.5"
       jointype="extrapolated"
       miter_limit="100" />
    <inkscape:path-effect
       effect="fill_between_many"
       method="bsplinespiro"
       autoreverse="false"
       close="false"
       join="false"
       linkedpaths="#path1580,0,1"
       id="path-effect1616"
       is_visible="true"
       lpeversion="0" />
    <inkscape:path-effect
       effect="powerstroke"
       message=""
       id="path-effect1615"
       is_visible="true"
       lpeversion="1.3"
       scale_width="1"
       interpolator_type="CentripetalCatmullRom"
       interpolator_beta="0.2"
       start_linecap_type="zerowidth"
       end_linecap_type="zerowidth"
       offset_points="3.0383389,0.51853147"
       linejoin_type="round"
       miter_limit="4"
       not_jump="false"
       sort_points="true" />
  </defs>
  <g
     inkscape:label="Layer 1"
     inkscape:groupmode="layer"
     id="layer1"
     transform="translate(-6.4474002,-54.155458)">
    <path
       d="m 52.828375,133.41097 0.38488,2.15418 0.564109,3.16636 0.259651,-0.0103 2.494255,-0.48598 1.537224,-0.29872 -2.667739,-2.30239 z"
       style="fill:#4d4d4d;stroke-width:0.22563"
       id="path13" />
    <path
       d="m 70.264037,125.68234 0.08157,2.82858 0.109145,3.69486 h 3.381204 2.988281 l -3.46852,-3.44899 z"
       style="fill:#4d4d4d;stroke-width:0.22563"
       id="path12" />
    <path
       d="m 64.517254,156.70486 -1.314339,-7.22197 -1.356847,-7.46439 -3.977482,0.75598 -4.361213,0.8295 a 0.4930428,0.4930428 0 0 1 -0.14591,0.007 l -0.973116,-0.108 -0.971967,-0.10915 a 0.4930428,0.4930428 0 0 1 -0.281479,-0.12867 l -0.574449,-0.53309 -0.574448,-0.53424 a 0.4930428,0.4930428 0 0 1 -0.122932,-0.18267 l -0.189568,-0.48828 a 0.4930428,0.4930428 0 0 1 -0.0011,-0.002 l -0.188419,-0.48828 a 0.4930428,0.4930428 0 0 1 -0.02528,-0.0919 l -0.951287,-5.49173 -0.878906,-5.08847 -8.622473,1.89453 -8.878676,1.94968 0.284926,1.47404 0.341223,1.77389 1.927849,9.79091 1.862362,9.45772 z"
       style="fill:#76cd76;fill-opacity:1;stroke-width:0.22563"
       id="path10" />
    <path
       d="m 77.618127,156.70486 0.102252,-1.36834 0.13557,-1.79802 0.33318,-6.65097 0.332031,-6.65556 a 0.4930428,0.4930428 0 0 1 0,-0.008 l 0.13557,-1.96347 0.09766,-1.44301 -5.006893,-0.062 -5.527344,-0.0666 a 0.4930428,0.4930428 0 0 1 -0.286075,-0.0965 l -0.63534,-0.46875 -0.636489,-0.46415 a 0.4930428,0.4930428 0 0 1 -0.148208,-0.17348 l -0.395221,-0.77436 -0.394071,-0.77321 a 0.4930428,0.4930428 0 0 1 -0.05285,-0.22403 v -5.81112 -5.31825 H 58.71877 51.765645 v 1.74632 1.99449 l 0.34352,0.2654 0.535386,0.4136 a 0.4930428,0.4930428 0 0 1 0.02183,0.0172 l 6.423484,5.56526 6.422335,5.56411 a 0.4930428,0.4930428 0 0 1 0.134421,0.18957 l 0.257352,0.64108 0.256205,0.63994 a 0.4930428,0.4930428 0 0 1 0.02757,0.0953 l 1.238511,6.77045 1.237362,6.76471 0.345818,1.80377 0.315947,1.64867 z"
       style="fill:#4ca8f3;fill-opacity:1;stroke-width:0.22563"
       id="path8" />
    <path
       d="m 49.929708,117.99162 a 0.4930428,0.4930428 0 0 0 -0.183824,0.0345 l -0.893842,0.3573 -0.894991,0.35731 a 0.4930428,0.4930428 0 0 0 -0.225183,0.18038 l -0.407859,0.60087 -0.407858,0.60202 a 0.4930428,0.4930428 0 0 0 -0.08387,0.25736 l -0.111443,2.8125 -0.09766,2.43566 -1.548713,0.34467 -1.916361,0.42279 a 0.4930428,0.4930428 0 0 0 -0.0023,0 l -7.896369,1.7762 -7.898667,1.77274 a 0.4930428,0.4930428 0 0 0 -0.255056,0.14706 l -0.716911,0.77896 -0.720359,0.7755 a 0.4930428,0.4930428 0 0 0 -0.124081,0.24587 l -0.149356,0.81227 -0.152804,0.80882 a 0.4930428,0.4930428 0 0 0 0,0.18727 l 2.301241,11.6705 2.233456,11.33272 h 4.766774 l -1.862362,-9.45772 -1.927849,-9.79091 -0.341223,-1.77389 -0.284926,-1.47404 8.878676,-1.94968 8.622473,-1.89453 0.878906,5.08847 0.951287,5.49173 a 0.4930428,0.4930428 0 0 0 0.02528,0.0919 l 0.188419,0.48828 a 0.4930428,0.4930428 0 0 0 0.0011,0.002 l 0.189568,0.48828 a 0.4930428,0.4930428 0 0 0 0.122932,0.18267 l 0.574448,0.53424 0.574449,0.53309 a 0.4930428,0.4930428 0 0 0 0.281479,0.12867 l 0.971967,0.10915 0.973116,0.108 a 0.4930428,0.4930428 0 0 0 0.14591,-0.007 l 4.361213,-0.8295 3.977482,-0.75598 1.356847,7.46439 1.314339,7.22197 h 4.808134 l -0.315947,-1.64867 -0.345818,-1.80377 -1.237362,-6.76471 -1.238511,-6.77045 a 0.4930428,0.4930428 0 0 0 -0.02757,-0.0953 l -0.256205,-0.63994 -0.257352,-0.64108 a 0.4930428,0.4930428 0 0 0 -0.134421,-0.18957 l -6.422335,-5.56411 -6.423484,-5.56526 a 0.4930428,0.4930428 0 0 0 -0.02183,-0.0172 l -0.535386,-0.4136 -0.34352,-0.2654 v -1.99449 -1.74632 h 6.953125 6.953125 v 5.31825 5.81112 a 0.4930428,0.4930428 0 0 0 0.05285,0.22403 l 0.394071,0.77321 0.395221,0.77436 a 0.4930428,0.4930428 0 0 0 0.148208,0.17348 l 0.636489,0.46415 0.63534,0.46875 a 0.4930428,0.4930428 0 0 0 0.286075,0.0965 l 5.527344,0.0666 5.006893,0.062 -0.09766,1.44301 -0.13557,1.96347 a 0.4930428,0.4930428 0 0 0 0,0.008 l -0.332031,6.65556 -0.33318,6.65097 -0.13557,1.79802 -0.102252,1.36834 h 4.744945 l 0.122932,-2.20589 0.150505,-2.7068 0.490579,-9.10156 0.49058,-9.09927 a 0.4930428,0.4930428 0 0 0 -0.01379,-0.14476 l -0.149357,-0.60202 -0.14591,-0.60087 a 0.4930428,0.4930428 0 0 0 -0.128676,-0.23093 l -6.584329,-6.62454 -6.585478,-6.62339 a 0.4930428,0.4930428 0 0 0 -0.155101,-0.1057 l -0.726103,-0.3148 -0.724954,-0.31365 a 0.4930428,0.4930428 0 0 0 -0.195313,-0.0391 h -9.140625 z"
       style="fill:#4d4d4d;stroke-width:0.22563"
       id="path5" />
    <path
       d="m 211.45389,209.67432 c -2.29615,0.003 -2.84212,0.0956 -4.13255,0.69762 -0.81782,0.38153 -1.97752,1.13679 -2.57712,1.67847 -0.59957,0.54171 -1.44526,1.7163 -1.87946,2.61016 -0.43419,0.89385 -0.91507,2.43362 -1.06815,3.42202 -0.18767,1.21192 -0.194,2.46803 -0.0196,3.85815 0.14216,1.13369 0.47331,2.60842 0.73586,3.27682 0.26254,0.66839 0.84939,1.74275 1.30381,2.38744 0.45442,0.64468 1.26698,1.5086 1.80607,1.91979 0.53909,0.41119 1.5957,0.96705 2.34768,1.23505 1.04817,0.37356 1.95598,0.46855 3.88969,0.40772 2.13309,-0.0671 2.75801,-0.19479 4.04987,-0.82682 0.99327,-0.48599 1.86936,-1.1801 2.50475,-1.98438 0.53743,-0.68027 1.20412,-1.74083 1.48157,-2.35696 0.27741,-0.61614 0.45466,-1.17004 0.39377,-1.23092 -0.0609,-0.0609 -1.12178,-0.18936 -2.35696,-0.28525 -2.24583,-0.17436 -2.24583,-0.1742 -2.69338,0.63717 -0.24616,0.44625 -0.84148,1.05161 -1.32291,1.34514 -0.58894,0.35907 -1.33816,0.53483 -2.29029,0.53483 -0.77838,0 -1.80062,-0.18211 -2.27171,-0.40566 -0.47109,-0.22354 -1.10159,-0.84862 -1.40094,-1.38906 -0.29938,-0.54044 -0.62706,-1.48839 -0.72813,-2.10685 l -0.18397,-1.12448 h 6.80527 6.80476 l -0.12091,-2.72023 c -0.0975,-2.19284 -0.2539,-3.00964 -0.80513,-4.21371 -0.37605,-0.82142 -1.19541,-2.04869 -1.82107,-2.72745 -0.62566,-0.67877 -1.73773,-1.55073 -2.47118,-1.93789 -1.18849,-0.62735 -1.62156,-0.7039 -3.9796,-0.70072 z m -0.0517,3.90726 c 0.46318,0.008 0.99976,0.14499 1.59369,0.40772 0.80299,0.3552 1.34975,0.8219 1.65624,1.41335 0.2517,0.4857 0.54557,1.27011 0.65268,1.74305 0.19476,0.8599 0.19486,0.8599 -3.87832,0.8599 -3.70504,0 -4.07275,-0.0418 -4.06746,-0.46303 0.003,-0.25466 0.23431,-0.96689 0.51369,-1.58234 0.29321,-0.6459 0.87815,-1.34445 1.38337,-1.65261 0.48138,-0.29363 1.24984,-0.60486 1.70788,-0.69144 0.13753,-0.0259 0.28385,-0.0373 0.43823,-0.0346 z"
       style="opacity:0.073185;fill:#333333;stroke:none;stroke-width:0.264583"
       id="path1715" />
    <path
       d="m 170.46933,209.56372 c -0.39571,0 -0.83106,0.008 -1.31672,0.0284 -2.0442,0.0848 -3.00562,0.25564 -4.06435,0.72192 -0.76277,0.33591 -1.79779,1.06558 -2.30013,1.6216 -0.51234,0.56711 -1.09397,1.61986 -1.32498,2.39779 -0.22651,0.76269 -0.41185,1.48442 -0.41185,1.60351 0,0.11911 1.16591,0.21653 2.59104,0.21653 2.59112,0 2.59112,-2.6e-4 2.84427,-0.8387 0.13922,-0.46112 0.56679,-1.06934 0.95033,-1.35186 0.38357,-0.28252 1.21701,-0.56679 1.85208,-0.63148 0.78722,-0.0802 1.44852,0.0347 2.07791,0.36017 0.52768,0.2729 1.0314,0.78923 1.17565,1.2051 0.16071,0.46374 0.15941,0.99084 -0.004,1.45418 -0.14063,0.39984 -0.5551,0.8709 -0.92139,1.04645 -0.36626,0.17555 -1.79223,0.45048 -3.16881,0.61079 -1.37657,0.16034 -3.08462,0.47797 -3.79563,0.70644 -0.71104,0.22844 -1.77194,0.84717 -2.35696,1.37459 -0.58502,0.52742 -1.28056,1.43536 -1.54565,2.01742 -0.29958,0.65778 -0.4836,1.68722 -0.4873,2.72026 -0.003,0.91739 0.17782,2.10288 0.40462,2.64583 0.22601,0.54102 0.73203,1.3216 1.12448,1.73477 0.39248,0.41318 1.07027,0.93745 1.50588,1.1648 0.43561,0.22736 1.09048,0.50401 1.45521,0.61495 0.36475,0.11094 1.3427,0.21235 2.174,0.22479 0.93326,0.014 2.07401,-0.1877 2.98122,-0.5271 0.80811,-0.30237 1.82012,-0.84527 2.24895,-1.20613 0.77973,-0.65609 0.77978,-0.65596 1.17306,0.28527 0.39328,0.94123 0.3936,0.94155 2.87581,0.94152 h 2.482 l -0.34623,-1.65365 c -0.22791,-1.0877 -0.34925,-3.78819 -0.35295,-7.89045 -0.005,-5.00047 -0.0884,-6.48224 -0.42633,-7.47395 -0.28276,-0.82992 -0.81962,-1.58705 -1.63089,-2.30116 -0.75573,-0.66519 -1.7517,-1.22185 -2.65567,-1.48466 -0.78703,-0.22889 -1.61989,-0.3338 -2.80705,-0.33798 z m 2.32852,11.12285 c 0.19547,0.023 0.19561,0.39576 0.0801,1.63245 -0.0902,0.96631 -0.34423,2.10606 -0.56484,2.53264 -0.22061,0.42662 -0.81888,1.03344 -1.32911,1.34877 -0.51022,0.31533 -1.56114,0.63886 -2.33576,0.71882 -1.2405,0.12803 -1.5017,0.0653 -2.188,-0.52504 -0.65577,-0.56406 -0.77928,-0.86574 -0.77928,-1.90635 0,-1.01685 0.12803,-1.34652 0.71882,-1.85465 0.41455,-0.3566 1.36546,-0.74099 2.24896,-0.909 0.84182,-0.16007 1.98938,-0.41571 2.55024,-0.56843 0.56084,-0.15269 1.20496,-0.34875 1.43142,-0.43564 0.0669,-0.0257 0.12232,-0.0389 0.16743,-0.0336 z"
       style="opacity:0.073185;fill:#333333;stroke:none;stroke-width:0.264583"
       id="path1709" />
    <path
       d="m 131.70838,174.04291 c -1.39878,0 -2.46574,0.17007 -3.50417,0.55861 -0.82122,0.30726 -1.98178,0.91223 -2.57866,1.34461 -0.59684,0.43236 -1.43883,1.27434 -1.87121,1.87122 -0.43236,0.59684 -1.04198,1.75723 -1.35496,2.57865 -0.36123,0.94811 -0.61812,2.3636 -0.70278,3.87522 -0.0965,1.72199 -0.0122,2.8539 0.30437,4.08863 0.24067,0.93909 0.70189,2.23817 1.02473,2.88666 0.32285,0.64849 1.08003,1.68704 1.6831,2.30838 0.60309,0.62135 1.71056,1.4409 2.46083,1.82108 0.75028,0.38021 2.04272,0.78242 2.87219,0.89347 0.82944,0.11113 1.92463,0.16304 2.43395,0.11576 0.50933,-0.0473 1.40338,-0.14611 1.98644,-0.21961 0.58309,-0.0735 1.65463,-0.41063 2.38125,-0.7488 0.7266,-0.33813 1.80216,-1.13871 2.39004,-1.77921 0.5879,-0.64053 1.34588,-1.73617 1.68415,-2.43502 0.33827,-0.69881 0.56184,-1.32381 0.49712,-1.38853 -0.0647,-0.0647 -1.1799,-0.22627 -2.4779,-0.35915 -1.47711,-0.1512 -2.39427,-0.14755 -2.45152,0.009 -0.0503,0.13779 -0.38082,0.59473 -0.73483,1.01544 -0.35401,0.42074 -1.17406,0.9674 -1.82213,1.21491 -0.79158,0.30226 -1.62028,0.40741 -2.52542,0.32041 -0.74107,-0.0712 -1.66635,-0.36142 -2.05568,-0.64492 -0.38934,-0.2835 -0.97587,-1.03976 -1.30329,-1.68053 -0.32742,-0.64076 -0.59531,-1.61604 -0.59531,-2.1673 0,-1.00227 0,-1.00201 7.14375,-1.00201 h 7.14375 v -1.79162 c 0,-0.98542 -0.22458,-2.60213 -0.49919,-3.59254 -0.27464,-0.99042 -0.93811,-2.43777 -1.47434,-3.21636 -0.5362,-0.77856 -1.59107,-1.83351 -2.34455,-2.34405 -0.75351,-0.51051 -1.89391,-1.0641 -2.5342,-1.23039 -0.64032,-0.16629 -2.06936,-0.30231 -3.17553,-0.30231 z m 0.11525,4.08191 c 0.1887,-0.003 0.38769,0.0135 0.60873,0.0419 0.63087,0.081 1.50809,0.40423 1.94923,0.71831 0.44112,0.31412 1.0236,1.05924 1.2945,1.65571 0.27088,0.59648 0.49499,1.29305 0.49816,1.54771 0.005,0.42243 -0.37536,0.46302 -4.34133,0.46302 -4.34716,0 -4.34729,0 -4.11396,-0.81391 0.12833,-0.44746 0.45019,-1.19161 0.7152,-1.65365 0.26503,-0.46204 1.01505,-1.11532 1.66656,-1.45211 0.68479,-0.35388 1.15683,-0.50273 1.72291,-0.50694 z"
       style="fill:#333333;fill-opacity:1;stroke:#363636;stroke-width:0.709217;stroke-linejoin:round;stroke-dasharray:none;stroke-opacity:1"
       id="path1697" />
    <path
       d="m 226.12276,174.03566 c -0.59859,-0.003 -1.20689,0.0262 -1.68103,0.0832 -0.94826,0.11417 -2.32499,0.46601 -3.05924,0.78187 -0.85312,0.367 -1.85087,1.1317 -2.76468,2.11873 -0.86789,0.93742 -1.67109,2.14635 -2.04277,3.07525 -0.52451,1.31064 -0.61304,2.00575 -0.61754,4.83796 -0.005,2.81845 0.0845,3.54195 0.6015,4.89479 0.33367,0.87313 1.01063,2.14135 1.50482,2.81842 0.49419,0.67704 1.33223,1.56192 1.86243,1.96631 0.5302,0.40441 1.57964,0.94779 2.33164,1.20766 0.9162,0.3166 2.17101,0.4753 3.80442,0.48112 1.86092,0.007 2.79646,-0.1261 3.95531,-0.55967 0.88484,-0.33108 2.03332,-1.04942 2.75333,-1.72289 0.67932,-0.63543 1.60769,-1.85486 2.06343,-2.70992 0.82862,-1.55464 0.82873,-1.55458 -0.031,-1.70479 -0.47286,-0.0826 -1.5258,-0.17645 -2.33989,-0.20825 -1.42066,-0.0555 -1.51858,-0.0151 -2.43758,1.002 -0.56584,0.62632 -1.37988,1.18663 -1.99007,1.36943 -0.5679,0.17016 -1.49942,0.30901 -2.07015,0.30901 -0.57076,0 -1.56919,-0.26789 -2.21848,-0.59531 -0.78351,-0.3951 -1.32982,-0.90673 -1.6247,-1.52136 -0.24437,-0.50932 -0.5257,-1.49158 -0.62529,-2.18281 l -0.1814,-1.25677 h 7.17373 7.17373 v -1.79626 c 0,-0.98806 -0.17775,-2.48017 -0.39531,-3.31557 -0.2176,-0.83537 -0.64239,-2.00266 -0.94414,-2.59416 -0.30179,-0.5915 -1.06503,-1.59163 -1.69601,-2.2226 -0.63095,-0.63096 -1.63277,-1.39481 -2.22623,-1.69757 -0.59346,-0.30274 -1.78909,-0.64765 -2.65721,-0.76637 -0.43405,-0.0593 -1.02304,-0.09 -1.62161,-0.0915 z m -0.22738,4.06074 c 0.18238,-0.003 0.36949,0.0106 0.56896,0.0372 0.59587,0.0799 1.39147,0.37367 1.76787,0.65268 0.37639,0.279 0.95036,0.97258 1.27537,1.54098 0.32504,0.56838 0.59267,1.30144 0.59531,1.62886 0.004,0.59266 -0.013,0.59531 -4.26228,0.59531 -4.2664,0 -4.2659,0 -4.10001,-0.82992 0.0913,-0.45625 0.4081,-1.22137 0.70435,-1.70069 0.3043,-0.49239 1.06003,-1.12421 1.73736,-1.45211 0.66212,-0.32052 1.16591,-0.46516 1.71307,-0.47231 z"
       style="fill:#333333;fill-opacity:1;stroke:#363636;stroke-width:0.709217;stroke-linejoin:round;stroke-dasharray:none;stroke-opacity:1"
       id="path1696" />
    <path
       inkscape:original-d="M 0,0"
       inkscape:path-effect="#path-effect1619"
       d="m -106.92578,-1284.2598 c 7.192082,86.6681 12.727393,173.6723 18.867186,260.5 l 1.365235,18.6055 1.363281,18.60547 c 2.007158,16.03026 11.932768,24.77932 28.779297,25.17188 l 106.5,-0.19141 106.500001,-0.19141 c 17.49052,-0.11135 24.17923,-8.39774 25.64453,-26 l 3.38867,-47.00003 3.38672,-47 7.04102,-99.248 7.03906,-99.2481 v -2.0019 -2.002 H 48.011719 Z"
       id="path1619"
       style="mix-blend-mode:darken;fill:#2a7a52;fill-opacity:1;stroke:none;stroke-width:1.00039;stroke-dasharray:none;stroke-opacity:1"
       transform="matrix(0.26458333,0,0,0.2136701,43.847849,438.20924)" />
    <path
       d="m -107.42407,-1284.2184 c 7.19155,86.6617 12.726763,173.6638 18.866817,260.4952 l 1.365231,18.6054 1.364218,18.6183 a 45.133812,45.133812 0 0 0 0.0016,0.0128 c 2.038537,16.28087 12.174074,25.2114 29.263775,25.60962 a 50.428603,50.428603 0 0 0 0.0063,1.5e-4 l 106.506259,-0.19142 106.502282,-0.19142 c 17.7758,-0.11317 24.65426,-8.61516 26.14006,-26.46403 l 3.38867,-47.00009 3.38676,-47.0005 7.04102,-99.248 7.04031,-99.2658 v -2.0196 -2.502 H 48.011719 -75.93828 c -15.49375,0 -30.9875,0.5 -30.9875,0.5 0,0 15.49375,0.5 30.9875,0.5 H 48.011719 202.94922 l -0.5,-0.5 v 2.002 2.0019 l 0.001,-0.035 -7.03906,99.2481 -7.04098,99.2475 -3.38672,46.9999 -3.38824,46.99455 c -0.72797,8.74492 -2.75144,15.09348 -6.67829,19.25753 -3.92685,4.16406 -9.80443,6.22879 -18.46886,6.28395 l -106.5,0.19141 -106.5,0.19141 0.01255,1.4e-4 c -8.339065,-0.19432 -14.903322,-2.44981 -19.63651,-6.59797 -4.733189,-4.14816 -7.66596,-10.21073 -8.658309,-18.13617 l 0.0025,0.0256 -1.363285,-18.60553 -1.365139,-18.6042 c -6.139439,-86.8227 -11.675258,-173.8342 -18.867651,-260.506 z"
       id="path1582"
       style="fill:#333333;fill-rule:nonzero;stroke:none"
       inkscape:path-effect="#path-effect1618"
       inkscape:original-d="m -106.92578,-1284.2598 c 7.192082,86.6681 12.727393,173.6723 18.867186,260.5 l 1.365235,18.6055 1.363281,18.60547 c 2.007158,16.03026 11.932768,24.77932 28.779297,25.17188 l 106.5,-0.19141 106.500001,-0.19141 c 17.49052,-0.11135 24.17923,-8.39774 25.64453,-26 l 3.38867,-47.00003 3.38672,-47 7.04102,-99.248 7.03906,-99.2481 v -2.0019 -2.002 H 48.011719 Z"
       inkscape:linked-fill="path1619"
       transform="matrix(0.26458333,0,0,0.2136701,43.847849,438.20924)"
       sodipodi:nodetypes="cccccccccccccccc" />
    <path
       d="m 194.25598,210.06757 0.0723,10.32806 0.0724,10.32804 2.70576,-0.0754 c 1.48826,-0.0414 2.67603,-0.16422 2.63964,-0.27339 -0.0364,-0.10914 -0.0661,-4.72281 -0.0661,-10.25258 V 210.06814 H 196.968 Z"
       style="opacity:0.073185;fill:#333333;stroke:none;stroke-width:0.264583"
       id="path1721" />
    <path
       d="m 131.54973,210.06757 0.0723,10.31875 0.0724,10.31925 h 2.63962 2.63964 V 220.38685 210.0681 h -2.71198 z"
       style="fill:#333333;fill-opacity:1;stroke:#363636;stroke-width:0.709217;stroke-linejoin:round;stroke-dasharray:none;stroke-opacity:1"
       id="path1719" />
    <path
       d="m 191.71402,209.8092 c -0.6392,0.003 -1.63846,0.22606 -2.22054,0.49557 -0.58208,0.2695 -1.39123,0.84473 -1.79835,1.27846 -0.40708,0.43371 -0.84335,1.13356 -0.96943,1.55496 -0.1815,0.6065 -0.23368,0.36671 -0.25167,-1.15186 l -0.0233,-1.91823 h -2.71198 -2.71198 l 0.0723,10.31875 0.0724,10.31925 h 2.6112 2.61069 l 0.0977,-5.88698 c 0.0934,-5.64846 0.12372,-5.94032 0.75602,-7.19646 0.36245,-0.72003 0.99523,-1.55347 1.4061,-1.85208 0.55367,-0.4024 1.15284,-0.54261 2.3151,-0.54261 1.56808,0 1.56787,-5e-5 1.56787,-1.08571 0,-0.59712 0.0765,-1.81751 0.17002,-2.71198 0.17,-1.62632 0.17,-1.6264 -0.99218,-1.62058 z"
       style="opacity:0.073185;fill:#333333;stroke:none;stroke-width:0.264583"
       id="path1717" />
    <path
       d="m 150.85916,209.58182 c -0.8028,-0.007 -1.53657,0.0985 -2.32286,0.3271 -0.98774,0.28713 -1.8229,0.75578 -2.43242,1.36531 -0.92805,0.92805 -0.92811,0.92813 -0.92811,-0.13902 0,-1.06717 0,-1.06711 -2.80603,-1.06711 -2.45039,0 -2.78607,0.0526 -2.64584,0.41806 0.0883,0.23019 0.16021,4.8736 0.16021,10.31875 v 9.90066 h 2.77812 2.77813 v -6.79596 c 0,-6.23056 0.044,-6.88546 0.524,-7.87704 0.28795,-0.59481 0.87189,-1.28743 1.2976,-1.53892 0.42574,-0.25149 1.29101,-0.45583 1.92339,-0.45318 0.63241,0.003 1.44745,0.1515 1.81126,0.33176 0.3638,0.18024 0.92935,0.8586 1.25677,1.50739 0.5715,1.13241 0.59531,1.45272 0.59531,8.00261 v 6.82334 h 2.65978 2.6598 l -0.0801,-8.26823 c -0.0764,-7.88614 -0.10641,-8.3171 -0.65111,-9.32654 -0.31414,-0.58208 -0.90943,-1.37953 -1.32292,-1.77199 -0.41354,-0.39246 -1.20716,-0.90387 -1.76371,-1.13636 -0.55655,-0.23249 -1.75422,-0.49199 -2.66134,-0.57671 -0.28742,-0.0268 -0.56232,-0.0417 -0.82992,-0.0439 z"
       style="fill:#333333;stroke:none;stroke-width:0.264583"
       id="path1713" />
    <path
       d="m 150.85916,209.58182 c 0.2676,0.003 0.5425,0.0172 0.82991,0.0439 0.90713,0.0847 2.10479,0.34422 2.66134,0.57671 0.55655,0.23249 1.35017,0.7439 1.76371,1.13636 0.4135,0.39246 1.00878,1.18991 1.32292,1.77199 0.5447,1.00944 0.57476,1.4404 0.65111,9.32654 l 0.0801,8.26823 h -2.6598 -2.65978 v -6.82334 c 0,-6.54989 -0.0238,-6.8702 -0.59531,-8.00261 -0.32742,-0.64879 -0.89297,-1.32715 -1.25677,-1.50739 -0.36381,-0.18026 -1.17885,-0.32964 -1.81126,-0.33176 -0.63238,-0.003 -1.49765,0.20169 -1.92339,0.45318 -0.42571,0.25149 -1.00965,0.94411 -1.2976,1.53892 -0.48003,0.99158 -0.524,1.64648 -0.524,7.87704 v 6.79596 h -2.77813 -2.77812 v -9.90066 c 0,-5.44515 -0.0719,-10.08856 -0.16021,-10.31875 -0.14023,-0.36541 0.19545,-0.41806 2.64584,-0.41806 2.80603,0 2.80603,-6e-5 2.80603,1.06711 0,1.06715 6e-5,1.06707 0.92811,0.13902 0.60952,-0.60953 1.44468,-1.07818 2.43242,-1.36531 0.78629,-0.22857 1.52006,-0.33398 2.32286,-0.3271 z"
       style="fill:#333333;fill-opacity:1;stroke:#363636;stroke-width:0.709217;stroke-linejoin:round;stroke-dasharray:none;stroke-opacity:1"
       id="path1712" />
    <path
       d="m 230.67754,209.57303 c -0.89371,0.006 -1.87515,0.0916 -2.46084,0.22686 -0.77919,0.17997 -1.9254,0.61804 -2.54714,0.97359 -0.62172,0.35552 -1.43251,1.10315 -1.80194,1.66139 -0.42326,0.63958 -0.72734,1.55454 -0.82217,2.47322 -0.0827,0.80185 -0.0699,1.88865 0.0289,2.41538 0.0988,0.52676 0.55038,1.37944 1.00303,1.89498 0.45268,0.51556 1.3883,1.2243 2.07947,1.57456 0.6912,0.35023 2.38813,0.9507 3.77084,1.33429 1.38269,0.38357 2.8788,0.91916 3.32433,1.1901 0.44556,0.27096 0.88527,0.79391 0.97772,1.16221 0.0923,0.36832 0.0942,0.96488 0.004,1.32601 -0.0907,0.36115 -0.51432,0.8374 -0.94155,1.05833 -0.44664,0.23098 -1.46573,0.40206 -2.39778,0.40204 -1.42931,0 -1.71024,-0.0892 -2.37503,-0.75396 -0.41466,-0.41466 -0.83569,-1.18856 -0.93536,-1.71979 -0.18119,-0.96586 -0.18137,-0.96584 -2.66546,-0.96584 -2.22507,0 -2.4841,0.0502 -2.4841,0.48112 0,0.26464 0.1878,1.11276 0.41704,1.88465 0.29998,1.01013 0.77293,1.75946 1.68775,2.67425 0.96557,0.96557 1.67579,1.39907 2.9564,1.80454 1.04262,0.33012 2.45205,0.53954 3.69435,0.5488 1.10466,0.008 2.5749,-0.15552 3.267,-0.3638 0.69209,-0.20828 1.71643,-0.68212 2.27634,-1.05265 0.55991,-0.37055 1.33861,-1.22081 1.73064,-1.88981 0.52371,-0.89363 0.74803,-1.70265 0.84439,-3.04943 0.0966,-1.34935 0.0114,-2.14707 -0.32245,-3.02151 -0.25781,-0.67506 -0.86926,-1.53014 -1.41594,-1.98075 -0.52914,-0.43617 -1.68045,-1.02529 -2.5585,-1.30898 -0.87804,-0.28368 -2.57966,-0.77438 -3.78116,-1.09037 -1.20155,-0.31599 -2.48147,-0.80806 -2.84427,-1.09347 -0.43267,-0.34033 -0.65939,-0.78327 -0.65939,-1.28725 0,-0.54152 0.20918,-0.90554 0.709,-1.23301 0.4694,-0.30755 1.22545,-0.46456 2.23552,-0.46456 1.12294,0 1.7223,0.14364 2.26756,0.54364 0.40761,0.29901 0.91112,0.92186 1.11932,1.38441 0.37848,0.841 0.37848,0.84129 2.57969,0.84129 2.10711,0 2.20146,-0.0254 2.19881,-0.59531 -0.003,-0.32742 -0.2844,-1.19062 -0.62838,-1.91823 -0.34396,-0.7276 -0.96787,-1.6442 -1.38647,-2.03658 -0.41857,-0.3924 -1.35599,-0.97721 -2.08359,-1.29966 -0.79688,-0.35316 -2.07492,-0.63473 -3.21377,-0.70847 -0.26053,-0.0169 -0.54856,-0.0241 -0.84645,-0.0222 z"
       style="opacity:0.073185;fill:#333333;stroke:none;stroke-width:0.264583"
       id="path1711" />
    <path
       d="m 194.38827,201.86601 h 2.64584 2.64583 v 2.51354 2.51355 h -2.64583 -2.64584 v -2.51355 z"
       style="opacity:0.073185;fill:#333333;stroke:#dd5555;stroke-width:0.264567;stroke-dasharray:none;stroke-opacity:1"
       id="path1706" />
    <path
       d="m 108.92786,201.86601 v 14.41979 14.41977 h 2.64583 c 2.64583,0 2.64583,-2.7e-4 2.64583,-0.97253 0,-0.97216 0,-0.97173 0.59532,-0.42738 0.32742,0.29937 1.01145,0.75448 1.51982,1.01184 0.50839,0.25737 1.22277,0.56547 1.5875,0.68469 0.36475,0.11922 1.67502,0.18177 2.91195,0.13902 1.80864,-0.0625 2.51481,-0.21347 3.60495,-0.77306 0.74556,-0.3827 1.84295,-1.24982 2.43861,-1.92651 0.59565,-0.67673 1.34882,-1.90262 1.6738,-2.72439 0.5138,-1.29924 0.59153,-1.99435 0.59841,-5.3304 0.007,-3.41382 -0.0607,-4.01133 -0.61494,-5.42396 -0.44019,-1.12202 -1.0622,-2.021 -2.12186,-3.06494 -1.27037,-1.25153 -1.76948,-1.54977 -3.27006,-1.95595 -1.2858,-0.34804 -2.21387,-0.43323 -3.38741,-0.31057 -0.889,0.0929 -2.16945,0.41362 -2.8453,0.7126 -0.67585,0.29895 -1.49804,0.79658 -1.82727,1.10588 -0.59862,0.56237 -0.59893,0.56237 -0.59893,-4.51083 v -5.07307 h -2.77813 z m 10.23091,12.17084 c 0.75133,0 1.67047,0.20552 2.20863,0.49403 0.59153,0.31713 1.15896,0.95443 1.58337,1.77868 0.5823,1.13094 0.66146,1.61814 0.66146,4.07004 0,2.44655 -0.0804,2.94404 -0.66146,4.09019 -0.43759,0.86318 -0.97348,1.46764 -1.58337,1.78594 -0.57219,0.29861 -1.48561,0.48109 -2.4081,0.48109 -1.10276,0 -1.71842,-0.15462 -2.38541,-0.59891 -0.49448,-0.32933 -1.13728,-1.07347 -1.42832,-1.65365 -0.43733,-0.87177 -0.52917,-1.58273 -0.52917,-4.09741 0,-2.83361 0.0496,-3.12704 0.71882,-4.26538 0.43894,-0.74668 1.07209,-1.3902 1.62729,-1.65364 0.49991,-0.23723 1.48839,-0.43098 2.19626,-0.43098 z"
       style="fill:#333333;fill-opacity:1;stroke:#363636;stroke-width:0.709217;stroke-linejoin:round;stroke-dasharray:none;stroke-opacity:1"
       id="path1705" />
    <path
       d="m 131.54973,201.86445 0.0847,2.51407 0.0842,2.51458 h 2.62774 l 2.62723,-0.003 v -2.51354 -2.51354 h -2.71198 z"
       style="fill:#333333;fill-opacity:1;stroke:#363636;stroke-width:0.709217;stroke-linejoin:round;stroke-dasharray:none;stroke-opacity:1"
       id="path1704" />
    <path
       d="m 169.76239,174.46717 -3.04633,0.006 c -2.58154,0.005 -3.03041,0.0669 -2.93884,0.40413 0.0595,0.21889 1.91125,5.04994 4.11499,10.73575 2.20374,5.68582 4.00397,10.62692 4.00079,10.98021 -0.003,0.3533 -0.23209,1.14046 -0.50848,1.74927 -0.30114,0.66326 -0.82362,1.27304 -1.30381,1.52135 -0.445,0.23014 -1.45425,0.41445 -2.26962,0.41445 -1.46833,0 -1.46865,-2.1e-4 -1.46865,2.09806 0,1.96562 0.0376,2.10537 0.59531,2.21279 0.32742,0.0631 1.46265,0.13105 2.52233,0.15089 1.21743,0.0228 2.28886,-0.1149 2.91041,-0.37414 0.54105,-0.22567 1.38116,-0.79121 1.86709,-1.25677 0.48593,-0.46559 1.17917,-1.4251 1.54046,-2.13217 0.36129,-0.70708 1.35093,-3.26692 2.19935,-5.68855 0.84841,-2.42162 2.86385,-8.0533 4.47881,-12.515 1.61496,-4.46169 2.93574,-8.15263 2.93574,-8.20208 0,-0.0495 -1.33459,-0.0899 -2.96418,-0.0899 h -2.96313 l -2.30735,7.10137 c -1.26907,3.90575 -2.34963,7.14361 -2.40141,7.19542 -0.0518,0.0518 -0.59486,-1.35787 -1.20663,-3.13261 -0.61174,-1.77475 -1.71394,-5.0159 -2.44946,-7.20268 z"
       style="fill:#333333;fill-opacity:1;stroke:#363636;stroke-width:0.709217;stroke-linejoin:round;stroke-dasharray:none;stroke-opacity:1"
       id="path1701" />
    <path
       d="m 195.5789,174.21705 c -2.71031,0 -3.35876,0.0848 -4.43177,0.58032 -0.69133,0.31929 -1.89151,1.18065 -2.66703,1.9141 -0.77555,0.73345 -1.7267,1.9808 -2.11407,2.77193 -0.38738,0.79116 -0.88387,2.12791 -1.10329,2.97035 -0.21944,0.84243 -0.39947,2.19612 -0.39947,3.0081 0,0.81198 0.17825,2.15979 0.39585,2.99516 0.21759,0.83539 0.64563,2.00824 0.95086,2.60657 0.30525,0.5983 1.07624,1.6451 1.71357,2.32645 0.63733,0.68136 1.83261,1.56869 2.65618,1.97197 0.92252,0.4517 2.16955,0.80079 3.24837,0.90847 0.96305,0.0961 2.47655,0.10179 3.36312,0.013 0.88659,-0.0888 2.26594,-0.46083 3.06543,-0.82683 0.79949,-0.36602 1.88891,-1.10085 2.42104,-1.63298 0.53213,-0.53213 1.21812,-1.45886 1.52445,-2.0593 0.30631,-0.60045 0.71628,-1.54231 0.91054,-2.09291 0.35322,-1.00108 0.35285,-1.00121 -1.01854,-1.14049 -0.75427,-0.0766 -1.94215,-0.18909 -2.63964,-0.25011 -1.26812,-0.11094 -1.26762,-0.11078 -1.91976,1.17616 -0.35867,0.70783 -0.94462,1.47854 -1.30173,1.71254 -0.35713,0.23399 -1.12278,0.48879 -1.70119,0.56639 -0.5784,0.0776 -1.4782,0.0606 -1.99988,-0.0372 -0.52162,-0.0979 -1.35665,-0.53644 -1.85571,-0.97459 -0.54665,-0.47998 -1.13368,-1.39472 -1.4769,-2.30169 -0.4686,-1.23825 -0.54668,-1.88092 -0.43926,-3.62199 0.0718,-1.16416 0.33515,-2.62315 0.58549,-3.24217 0.25038,-0.619 0.80489,-1.41984 1.23198,-1.77922 0.42712,-0.35938 1.24183,-0.79243 1.81023,-0.96274 0.80783,-0.24201 1.29961,-0.23543 2.25309,0.0315 0.81176,0.22731 1.42499,0.61638 1.83398,1.16274 0.33798,0.45151 0.69882,1.09691 0.8015,1.43452 0.17778,0.58438 0.27104,0.60642 1.94874,0.45423 0.96922,-0.0879 2.27391,-0.22354 2.89904,-0.30125 1.01695,-0.12639 1.11913,-0.20177 0.97099,-0.71832 -0.0911,-0.3175 -0.46029,-1.19819 -0.82063,-1.95699 -0.36033,-0.7588 -1.18811,-1.84904 -1.83967,-2.42258 -0.65157,-0.57353 -1.74665,-1.3218 -2.43293,-1.66295 -1.10019,-0.54685 -1.6238,-0.62011 -4.42298,-0.62011 z"
       style="fill:#333333;fill-opacity:1;stroke:#363636;stroke-width:0.709217;stroke-linejoin:round;stroke-dasharray:none;stroke-opacity:1"
       id="path1700" />
    <path
       d="m 154.17161,174.21705 c -2.62657,0 -3.23012,0.0849 -4.41574,0.62114 -0.82701,0.37404 -1.96358,1.23928 -2.85618,2.17506 -0.81528,0.85476 -1.73344,2.12225 -2.0407,2.81689 -0.30726,0.69461 -0.7176,1.85909 -0.91157,2.58744 -0.19399,0.72834 -0.35198,2.09838 -0.34933,3.04427 0.003,0.94588 0.12359,2.24184 0.2708,2.88044 0.14721,0.63857 0.56912,1.79808 0.93739,2.57659 0.3683,0.77848 1.22727,1.97294 1.90842,2.65409 0.68114,0.68114 1.87629,1.53069 2.65617,1.88774 0.77989,0.35703 2.03021,0.73846 2.77863,0.84802 0.74843,0.10959 1.42018,0.2105 1.49294,0.22426 0.0728,0.0138 0.99229,-0.0867 2.0433,-0.22323 1.06066,-0.13779 2.48594,-0.53975 3.20341,-0.90331 0.71094,-0.36026 1.82883,-1.25145 2.4841,-1.98025 0.70109,-0.77978 1.43917,-1.98707 1.79316,-2.93365 0.33086,-0.88471 0.53054,-1.67965 0.44389,-1.7663 -0.0866,-0.0866 -1.24553,-0.23413 -2.57503,-0.32816 -2.41729,-0.17092 -2.41689,-0.17095 -3.06181,1.10175 -0.3601,0.71056 -1.02066,1.50151 -1.49553,1.79109 -0.53078,0.32362 -1.3266,0.51988 -2.11614,0.51988 -0.69591,0 -1.66222,-0.1651 -2.14768,-0.36795 -0.48545,-0.20283 -1.18171,-0.76838 -1.54667,-1.25677 -0.36499,-0.48837 -0.81098,-1.348 -0.99116,-1.90995 -0.20402,-0.63638 -0.28469,-1.93365 -0.21447,-3.43958 0.0757,-1.62415 0.26877,-2.7214 0.58912,-3.34346 0.26231,-0.50933 0.78558,-1.2558 1.16221,-1.65831 0.37664,-0.40251 1.12845,-0.85119 1.67122,-0.99734 0.63285,-0.17039 1.38191,-0.1768 2.08825,-0.018 0.60581,0.13612 1.38776,0.51599 1.73736,0.84439 0.34956,0.32842 0.78105,0.99994 0.95911,1.49241 0.32377,0.89535 0.32412,0.89564 2.05155,0.73951 0.9501,-0.0859 2.23303,-0.21889 2.8515,-0.2956 0.61846,-0.0767 1.12453,-0.28125 1.12188,-0.45423 -0.003,-0.17299 -0.29038,-0.93287 -0.64233,-1.68879 -0.35194,-0.75594 -1.13749,-1.91428 -1.74561,-2.57399 -0.60809,-0.65972 -1.77718,-1.52935 -2.59831,-1.93271 -1.36888,-0.67244 -1.74647,-0.73329 -4.53615,-0.73329 z"
       style="fill:#333333;fill-opacity:1;stroke:#363636;stroke-width:0.709217;stroke-linejoin:round;stroke-dasharray:none;stroke-opacity:1"
       id="path1699" />
    <path
       d="m 120.48634,174.08476 c -0.62979,0 -1.68354,0.18302 -2.34148,0.4072 -0.65794,0.22418 -1.56877,0.79211 -2.02415,1.26195 -0.45537,0.46982 -1.00134,1.32808 -1.21338,1.90738 -0.38563,1.05326 -0.38557,1.0536 -0.40409,-1.13844 l -0.019,-2.1921 -2.71198,0.0754 -2.71198,0.0755 -0.0687,10.78177 -0.0692,10.78177 h 2.75693 2.75643 l 0.0951,-6.28385 c 0.0864,-5.71085 0.14613,-6.39509 0.65267,-7.4993 0.30658,-0.66826 0.95928,-1.5017 1.45056,-1.85208 0.73313,-0.52287 1.21549,-0.63665 2.69078,-0.63665 1.58647,0 1.80996,-0.0621 1.90169,-0.52916 0.0572,-0.29104 0.1714,-1.57097 0.25427,-2.84427 0.15063,-2.31511 0.15078,-2.31511 -0.99425,-2.31511 z"
       style="fill:#333333;fill-opacity:1;stroke:#363636;stroke-width:0.709217;stroke-linejoin:round;stroke-dasharray:none;stroke-opacity:1"
       id="path1698" />
    <path
       d="m 207.61744,165.88268 v 15.08125 15.08125 h 2.77812 2.77813 v -15.08125 -15.08125 h -2.77813 z"
       style="fill:#333333;fill-opacity:1;stroke:#363636;stroke-width:0.709217;stroke-linejoin:round;stroke-dasharray:none;stroke-opacity:1"
       id="path1694" />
    <g
       id="g1725"
       transform="matrix(0.11751485,0,0,0.11751485,177.02612,286.87657)"
       style="fill:#4d4d4d;stroke:none">
      <path
         fill="#413000"
         d="m -477.58907,-1250.3673 c -22.09474,0 -38.54859,10.8495 -38.54859,36.9612 0,19.6734 10.84433,33.33 37.35986,33.33 22.47314,0 37.73642,-13.2417 37.73642,-34.1425 0,-23.6859 -13.65924,-36.1472 -36.54769,-36.1472 z m -44.18948,184.3628 c -5.22817,6.4169 -10.43825,13.2347 -10.43825,21.2811 0,16.0522 20.4704,20.8832 48.58997,20.8832 23.29454,0 55.02458,-1.6313 55.02458,-23.289 0,-12.8726 -15.26512,-13.6696 -34.55418,-14.879 l -58.62397,-3.9963 z m 118.87597,-183.1482 c 7.21725,9.2399 14.85904,22.094 14.85904,40.5679 0,44.5771 -34.94181,70.6811 -85.53267,70.6811 -12.86553,0 -24.5128,-1.6027 -31.73447,-3.6073 l -13.25758,21.2819 39.35337,2.4042 c 69.48491,4.427 110.43678,6.439 110.43678,59.8348 0,46.1978 -40.55317,72.28692 -110.43678,72.28692 -72.6893,0 -100.39909,-18.47652 -100.39909,-50.19952 0,-18.0801 8.03385,-27.6969 22.09031,-40.9703 -13.25758,-5.604 -17.66915,-15.6388 -17.66915,-26.4872 0,-8.8415 4.41157,-16.8717 11.6517,-24.5076 7.22648,-7.6233 15.25589,-15.2644 24.89599,-24.0971 -19.67668,-9.6368 -34.54015,-30.5214 -34.54015,-60.2446 0,-46.1793 30.52581,-77.8946 91.9599,-77.8946 17.27266,0 27.72013,1.5897 36.95746,4.0144 h 78.31912 v 34.1281 l -36.95378,2.8122"
         id="path1"
         style="fill:#4d4d4d;stroke:none;stroke-width:3.69169" />
      <path
         fill="#413000"
         d="m -295.25671,-1322.1336 c -22.89768,0 -36.14603,-13.265 -36.14603,-36.1652 0,-22.8715 13.24872,-35.331 36.14603,-35.331 23.29454,0 36.54769,12.4595 36.54769,35.331 0,22.8998 -13.25315,36.1652 -36.54769,36.1652 z m -51.8165,241.3476 v -31.7112 l 20.48886,-2.8029 c 5.62539,-0.8149 6.42353,-2.0101 6.42353,-8.0486 v -118.0712 c 0,-4.4086 -1.1998,-7.232 -5.22816,-8.4274 l -21.68423,-7.6373 4.41599,-32.5186 h 83.14046 v 166.6574 c 0,6.4376 0.38763,7.2339 6.42797,8.0486 l 20.48442,2.803 v 31.7112 h -114.47179"
         id="path2-3"
         style="fill:#4d4d4d;stroke:none;stroke-width:3.69169" />
      <path
         fill="#413000"
         d="m -73.792468,-1096.3501 c -17.27709,8.4237 -42.572522,16.0555 -65.475742,16.0555 -47.78887,0 -65.85598,-19.2588 -65.85598,-64.6599 v -105.213 c 0,-2.4047 0,-4.0181 -3.22561,-4.0181 h -28.10776 v -35.7414 c 35.35232,-4.0269 49.39845,-21.7012 53.81739,-65.4757 h 38.15727 v 57.0476 c 0,2.801 0,4.0143 3.21638,4.0143 h 56.623082 v 40.1545 h -59.838542 v 95.9801 c 0,23.6984 5.62982,32.9277 27.30445,32.9277 11.25964,0 22.892882,-2.803 32.532982,-6.4206 l 10.85356,35.3519"
         id="path3-6"
         style="fill:#4d4d4d;stroke:none;stroke-width:3.69169" />
    </g>
    <path
       fill="#f05133"
       d="M 82.62161,194.48491 58.973338,170.83954 c -1.360673,-1.36191 -3.569335,-1.36191 -4.931701,0 l -4.910297,4.91078 6.228557,6.22855 c 1.447985,-0.4889 3.107663,-0.1611 4.261352,0.9928 1.159669,1.16109 1.485106,2.83495 0.983959,4.28778 l 6.003211,6.00324 c 1.452377,-0.50049 3.128089,-0.17714 4.28781,0.98462 1.621367,1.62089 1.621367,4.24738 0,5.8687 -1.621604,1.62184 -4.248096,1.62184 -5.870601,0 -1.219147,-1.22008 -1.520692,-3.01136 -0.903208,-4.51345 l -5.598662,-5.59866 v 14.73282 c 0.395287,0.19568 0.768323,0.45682 1.097729,0.7848 1.620891,1.62071 1.620891,4.24672 0,5.87013 -1.621366,1.62065 -4.249049,1.62065 -5.868696,0 -1.621129,-1.62327 -1.621129,-4.24929 0,-5.87013 0.400632,-0.39992 0.864208,-0.70263 1.358847,-0.90551 v -14.86974 c -0.494877,-0.20204 -0.957897,-0.5025 -1.359138,-0.90562 -1.227931,-1.22697 -1.523683,-3.02918 -0.893921,-4.53707 l -6.140133,-6.14109 -16.213667,16.2132 c -1.362313,1.36292 -1.362313,3.57158 0,4.93357 l 23.646871,23.64545 c 1.361414,1.36189 3.569309,1.36189 4.932627,0 L 82.621822,199.421 c 1.361889,-1.36258 1.361889,-3.5719 0,-4.93408"
       id="path4"
       style="stroke-width:0.47539;stroke:none;fill:#e25b41;fill-opacity:1" />
    <path
       id="rect1"
       style="fill:#065a35;stroke:none;stroke-width:0.588235;fill-opacity:1"
       sodipodi:type="inkscape:offset"
       inkscape:radius="2.2217393"
       inkscape:original="M 9.3457031 146.16992 L 9.3457031 147.3457 L 9.3457031 162.46875 L 103.89844 162.46875 L 103.89844 146.16992 L 9.3457031 146.16992 z "
       d="m 9.3457031,143.94727 a 2.2219615,2.2219615 0 0 0 -2.2226562,2.22265 v 1.17578 15.12305 a 2.2219615,2.2219615 0 0 0 2.2226562,2.22266 H 103.89844 a 2.2219615,2.2219615 0 0 0 2.22265,-2.22266 v -16.29883 a 2.2219615,2.2219615 0 0 0 -2.22265,-2.22265 z"
       transform="matrix(0.90150352,0,0,0.67869421,6.2702573,49.631183)"
       inkscape:transform-center-x="-42.466016"
       inkscape:transform-center-y="-6.559791" />
  </g>
</svg>
