<?xml version="1.0" encoding="UTF-8" standalone="no"?>
<!-- Created with Inkscape (http://www.inkscape.org/) -->

<svg
   width="789.04376"
   height="195.34262"
   viewBox="0 0 464.14339 114.90743"
   version="1.1"
   id="svg1"
   inkscape:version="1.4 (e7c3feb100, 2024-10-09)"
   sodipodi:docname="flat1-color-dark.long.svg"
   xmlns:inkscape="http://www.inkscape.org/namespaces/inkscape"
   xmlns:sodipodi="http://sodipodi.sourceforge.net/DTD/sodipodi-0.dtd"
   xmlns="http://www.w3.org/2000/svg"
   xmlns:svg="http://www.w3.org/2000/svg">
  <sodipodi:namedview
     id="namedview1"
     pagecolor="#ffffff"
     bordercolor="#000000"
     borderopacity="0.25"
     inkscape:showpageshadow="2"
     inkscape:pageopacity="0.0"
     inkscape:pagecheckerboard="0"
     inkscape:deskcolor="#d1d1d1"
     inkscape:document-units="mm"
     inkscape:clip-to-page="true"
     inkscape:zoom="0.70272116"
     inkscape:cx="468.18001"
     inkscape:cy="377.10548"
     inkscape:window-width="1920"
     inkscape:window-height="1149"
     inkscape:window-x="0"
     inkscape:window-y="0"
     inkscape:window-maximized="1"
     inkscape:current-layer="layer1" />
  <defs
     id="defs1">
    <linearGradient
       id="swatch83"
       inkscape:swatch="solid">
      <stop
         style="stop-color:#000000;stop-opacity:1;"
         offset="0"
         id="stop83" />
    </linearGradient>
    <inkscape:path-effect
       effect="fill_between_many"
       method="bsplinespiro"
       autoreverse="false"
       close="false"
       join="false"
       linkedpaths="#path1582,0,1"
       id="path-effect1619"
       is_visible="true"
       lpeversion="0" />
    <inkscape:path-effect
       effect="taper_stroke"
       start_shape="center | center"
       end_shape="center | center"
       id="path-effect1618"
       is_visible="true"
       lpeversion="1"
       stroke_width="1"
       subpath="1"
       attach_start="0"
       end_offset="0.2"
       start_smoothing="0.5"
       end_smoothing="0.5"
       jointype="extrapolated"
       miter_limit="100" />
    <inkscape:path-effect
       effect="fill_between_many"
       method="bsplinespiro"
       autoreverse="false"
       close="false"
       join="false"
       linkedpaths="#path1580,0,1"
       id="path-effect1616"
       is_visible="true"
       lpeversion="0" />
    <inkscape:path-effect
       effect="powerstroke"
       message=""
       id="path-effect1615"
       is_visible="true"
       lpeversion="1.3"
       scale_width="1"
       interpolator_type="CentripetalCatmullRom"
       interpolator_beta="0.2"
       start_linecap_type="zerowidth"
       end_linecap_type="zerowidth"
       offset_points="3.0383389,0.51853147"
       linejoin_type="round"
       miter_limit="4"
       not_jump="false"
       sort_points="true" />
  </defs>
  <g
     inkscape:label="Layer 1"
     inkscape:groupmode="layer"
     id="layer1"
     transform="translate(-12.691709,-117.99114)">
    <path
       d="m 52.828375,133.41097 0.432428,2.42031 0.6338,3.55753 0.291729,-0.0116 2.802397,-0.54602 1.727134,-0.33562 -2.997314,-2.58683 z"
       style="fill:#4d4d4d;stroke-width:0.253505"
       id="path13" />
    <path
       d="m 70.264037,125.68234 0.08157,2.82858 0.109145,3.69486 h 3.381204 2.988281 l -3.46852,-3.44899 z"
       style="fill:#4d4d4d;stroke-width:0.22563"
       id="path12" />
    <path
       d="m 64.517254,156.70486 -1.314339,-7.22197 -1.356847,-7.46439 -3.977482,0.75598 -4.361213,0.8295 a 0.4930428,0.4930428 0 0 1 -0.14591,0.007 l -0.973116,-0.108 -0.971967,-0.10915 a 0.4930428,0.4930428 0 0 1 -0.281479,-0.12867 l -0.574449,-0.53309 -0.574448,-0.53424 a 0.4930428,0.4930428 0 0 1 -0.122932,-0.18267 l -0.189568,-0.48828 a 0.4930428,0.4930428 0 0 1 -0.0011,-0.002 l -0.188419,-0.48828 a 0.4930428,0.4930428 0 0 1 -0.02528,-0.0919 l -0.951287,-5.49173 -0.878906,-5.08847 -8.622473,1.89453 -8.878676,1.94968 0.284926,1.47404 0.341223,1.77389 1.927849,9.79091 1.862362,9.45772 z"
       style="fill:#76cd76;fill-opacity:1;stroke-width:0.22563"
       id="path10" />
    <path
       d="m 77.618127,156.70486 0.102252,-1.36834 0.13557,-1.79802 0.33318,-6.65097 0.332031,-6.65556 a 0.4930428,0.4930428 0 0 1 0,-0.008 l 0.13557,-1.96347 0.09766,-1.44301 -5.006893,-0.062 -5.527344,-0.0666 a 0.4930428,0.4930428 0 0 1 -0.286075,-0.0965 l -0.63534,-0.46875 -0.636489,-0.46415 a 0.4930428,0.4930428 0 0 1 -0.148208,-0.17348 l -0.395221,-0.77436 -0.394071,-0.77321 a 0.4930428,0.4930428 0 0 1 -0.05285,-0.22403 v -5.81112 -5.31825 H 58.71877 51.765645 v 1.74632 1.99449 l 0.34352,0.2654 0.535386,0.4136 a 0.4930428,0.4930428 0 0 1 0.02183,0.0172 l 6.423484,5.56526 6.422335,5.56411 a 0.4930428,0.4930428 0 0 1 0.134421,0.18957 l 0.257352,0.64108 0.256205,0.63994 a 0.4930428,0.4930428 0 0 1 0.02757,0.0953 l 1.238511,6.77045 1.237362,6.76471 0.345818,1.80377 0.315947,1.64867 z"
       style="fill:#4ca8f3;fill-opacity:1;stroke-width:0.22563"
       id="path8" />
    <path
       d="m 49.929708,117.99162 a 0.4930428,0.4930428 0 0 0 -0.183824,0.0345 l -0.893842,0.3573 -0.894991,0.35731 a 0.4930428,0.4930428 0 0 0 -0.225183,0.18038 l -0.407859,0.60087 -0.407858,0.60202 a 0.4930428,0.4930428 0 0 0 -0.08387,0.25736 l -0.111443,2.8125 -0.09766,2.43566 -1.548713,0.34467 -1.916361,0.42279 a 0.4930428,0.4930428 0 0 0 -0.0023,0 l -7.896369,1.7762 -7.898667,1.77274 a 0.4930428,0.4930428 0 0 0 -0.255056,0.14706 l -0.716911,0.77896 -0.720359,0.7755 a 0.4930428,0.4930428 0 0 0 -0.124081,0.24587 l -0.149356,0.81227 -0.152804,0.80882 a 0.4930428,0.4930428 0 0 0 0,0.18727 l 2.301241,11.6705 2.233456,11.33272 h 4.766774 l -1.862362,-9.45772 -1.927849,-9.79091 -0.341223,-1.77389 -0.284926,-1.47404 8.878676,-1.94968 8.622473,-1.89453 0.878906,5.08847 0.951287,5.49173 a 0.4930428,0.4930428 0 0 0 0.02528,0.0919 l 0.188419,0.48828 a 0.4930428,0.4930428 0 0 0 0.0011,0.002 l 0.189568,0.48828 a 0.4930428,0.4930428 0 0 0 0.122932,0.18267 l 0.574448,0.53424 0.574449,0.53309 a 0.4930428,0.4930428 0 0 0 0.281479,0.12867 l 0.971967,0.10915 0.973116,0.108 a 0.4930428,0.4930428 0 0 0 0.14591,-0.007 l 4.361213,-0.8295 3.977482,-0.75598 1.356847,7.46439 1.314339,7.22197 h 4.808134 l -0.315947,-1.64867 -0.345818,-1.80377 -1.237362,-6.76471 -1.238511,-6.77045 a 0.4930428,0.4930428 0 0 0 -0.02757,-0.0953 l -0.256205,-0.63994 -0.257352,-0.64108 a 0.4930428,0.4930428 0 0 0 -0.134421,-0.18957 l -6.422335,-5.56411 -6.423484,-5.56526 a 0.4930428,0.4930428 0 0 0 -0.02183,-0.0172 l -0.535386,-0.4136 -0.34352,-0.2654 v -1.99449 -1.74632 h 6.953125 6.953125 v 5.31825 5.81112 a 0.4930428,0.4930428 0 0 0 0.05285,0.22403 l 0.394071,0.77321 0.395221,0.77436 a 0.4930428,0.4930428 0 0 0 0.148208,0.17348 l 0.636489,0.46415 0.63534,0.46875 a 0.4930428,0.4930428 0 0 0 0.286075,0.0965 l 5.527344,0.0666 5.006893,0.062 -0.09766,1.44301 -0.13557,1.96347 a 0.4930428,0.4930428 0 0 0 0,0.008 l -0.332031,6.65556 -0.33318,6.65097 -0.13557,1.79802 -0.102252,1.36834 h 4.744945 l 0.122932,-2.20589 0.150505,-2.7068 0.490579,-9.10156 0.49058,-9.09927 a 0.4930428,0.4930428 0 0 0 -0.01379,-0.14476 l -0.149357,-0.60202 -0.14591,-0.60087 a 0.4930428,0.4930428 0 0 0 -0.128676,-0.23093 l -6.584329,-6.62454 -6.585478,-6.62339 a 0.4930428,0.4930428 0 0 0 -0.155101,-0.1057 l -0.726103,-0.3148 -0.724954,-0.31365 a 0.4930428,0.4930428 0 0 0 -0.195313,-0.0391 h -9.140625 z"
       style="fill:#4d4d4d;stroke-width:0.22563"
       id="path5" />
    <path
       inkscape:original-d="M 0,0"
       inkscape:path-effect="#path-effect1619"
       d="m -106.92578,-1284.2598 c 7.192082,86.6681 12.727393,173.6723 18.867186,260.5 l 1.365235,18.6055 1.363281,18.60547 c 2.007158,16.03026 11.932768,24.77932 28.779297,25.17188 l 106.5,-0.19141 106.500001,-0.19141 c 17.49052,-0.11135 24.17923,-8.39774 25.64453,-26 l 3.38867,-47.00003 3.38672,-47 7.04102,-99.248 7.03906,-99.2481 v -2.0019 -2.002 H 48.011719 Z"
       id="path1619"
       style="mix-blend-mode:darken;fill:#333333;fill-opacity:1;stroke:none;stroke-width:1.00039;stroke-dasharray:none;stroke-opacity:1"
       transform="matrix(0.26458333,0,0,0.2136701,43.847849,438.20924)" />
    <path
       d="m -107.42407,-1284.2184 c 7.19155,86.6617 12.726763,173.6638 18.866817,260.4952 l 1.365231,18.6054 1.364218,18.6183 a 45.133812,45.133812 0 0 0 0.0016,0.0128 c 2.038537,16.28087 12.174074,25.2114 29.263775,25.60962 a 50.428603,50.428603 0 0 0 0.0063,1.5e-4 l 106.506259,-0.19142 106.502282,-0.19142 c 17.7758,-0.11317 24.65426,-8.61516 26.14006,-26.46403 l 3.38867,-47.00009 3.38676,-47.0005 7.04102,-99.248 7.04031,-99.2658 v -2.0196 -2.502 H 48.011719 -75.93828 c -15.49375,0 -30.9875,0.5 -30.9875,0.5 0,0 15.49375,0.5 30.9875,0.5 H 48.011719 202.94922 l -0.5,-0.5 v 2.002 2.0019 l 0.001,-0.035 -7.03906,99.2481 -7.04098,99.2475 -3.38672,46.9999 -3.38824,46.99455 c -0.72797,8.74492 -2.75144,15.09348 -6.67829,19.25753 -3.92685,4.16406 -9.80443,6.22879 -18.46886,6.28395 l -106.5,0.19141 -106.5,0.19141 0.01255,1.4e-4 c -8.339065,-0.19432 -14.903322,-2.44981 -19.63651,-6.59797 -4.733189,-4.14816 -7.66596,-10.21073 -8.658309,-18.13617 l 0.0025,0.0256 -1.363285,-18.60553 -1.365139,-18.6042 c -6.139439,-86.8227 -11.675258,-173.8342 -18.867651,-260.506 z"
       id="path1582"
       style="fill:#333333;fill-rule:nonzero;stroke:none"
       inkscape:path-effect="#path-effect1618"
       inkscape:original-d="m -106.92578,-1284.2598 c 7.192082,86.6681 12.727393,173.6723 18.867186,260.5 l 1.365235,18.6055 1.363281,18.60547 c 2.007158,16.03026 11.932768,24.77932 28.779297,25.17188 l 106.5,-0.19141 106.500001,-0.19141 c 17.49052,-0.11135 24.17923,-8.39774 25.64453,-26 l 3.38867,-47.00003 3.38672,-47 7.04102,-99.248 7.03906,-99.2481 v -2.0019 -2.002 H 48.011719 Z"
       inkscape:linked-fill="path1619"
       transform="matrix(0.26458333,0,0,0.2136701,43.847849,438.20924)"
       sodipodi:nodetypes="cccccccccccccccc" />
    <g
       id="g2"
       transform="matrix(0.81494182,0,0,0.81494182,24.627836,7.920801)">
      <path
         d="m 490.14327,196.01443 0.17355,24.77127 0.17382,24.77246 h 6.33668 6.33674 V 220.78697 196.0157 h -6.51039 z"
         style="fill:#333333;fill-opacity:1;stroke:#363636;stroke-width:1.70255;stroke-linejoin:round;stroke-dasharray:none;stroke-opacity:1"
         id="path1719" />
      <path
         d="m 536.49763,194.84834 c -1.92721,-0.0168 -3.68871,0.23647 -5.57627,0.78523 -2.37118,0.68928 -4.37607,1.81433 -5.8393,3.27757 -2.22788,2.22789 -2.22802,2.22808 -2.22802,-0.33372 0,-2.56186 0,-2.56172 -6.73618,-2.56172 -5.88243,0 -6.68826,0.12625 -6.35162,1.00359 0.21197,0.5526 0.38459,11.69961 0.38459,24.77128 v 23.76759 h 6.66918 6.66921 v -16.31444 c 0,-14.95712 0.10558,-16.52928 1.25791,-18.90967 0.69125,-1.42791 2.09306,-3.09061 3.11503,-3.69435 1.02204,-0.60372 3.09921,-1.09426 4.6173,-1.0879 1.51818,0.008 3.47477,0.36368 4.34812,0.79642 0.87335,0.43269 2.23101,2.06116 3.01702,3.61865 1.37194,2.71848 1.42911,3.48742 1.42911,19.21113 v 16.38016 h 6.38508 6.38513 l -0.19229,-19.84878 c -0.1834,-18.93152 -0.25544,-19.96608 -1.56305,-22.38934 -0.75413,-1.39736 -2.18319,-3.31172 -3.17581,-4.25387 -0.99275,-0.94214 -2.89792,-2.16984 -4.23398,-2.72795 -1.33606,-0.55811 -4.21119,-1.18107 -6.38883,-1.38446 -0.68997,-0.0644 -1.34992,-0.10013 -1.99232,-0.10544 z"
         style="fill:#333333;stroke:none;stroke-width:0.63516"
         id="path1713" />
      <path
         d="m 536.49763,194.84834 c 0.6424,0.008 1.30231,0.0413 1.99228,0.10544 2.17766,0.20334 5.05276,0.82634 6.38884,1.38445 1.33606,0.55812 3.24122,1.78582 4.23398,2.72795 0.99263,0.94216 2.42166,2.85652 3.17581,4.25387 1.30761,2.42326 1.37976,3.45783 1.56305,22.38936 l 0.19229,19.84877 h -6.38514 -6.38508 v -16.38016 c 0,-15.72371 -0.0571,-16.49266 -1.42911,-19.21113 -0.786,-1.55749 -2.14368,-3.18597 -3.01702,-3.61866 -0.87336,-0.43273 -2.82994,-0.79132 -4.34811,-0.79642 -1.51811,-0.008 -3.59528,0.48419 -4.61732,1.0879 -1.02196,0.60375 -2.42377,2.26646 -3.11501,3.69435 -1.15237,2.38039 -1.25793,3.95256 -1.25793,18.90968 v 16.31444 h -6.66919 -6.66918 v -23.7676 c 0,-13.07167 -0.17261,-24.21867 -0.3846,-24.77128 -0.33664,-0.87719 0.4692,-1.00358 6.35163,-1.00358 6.73616,0 6.73616,-1.4e-4 6.73616,2.56171 0,2.56181 1.4e-4,2.56161 2.22803,0.33372 1.46322,-1.46323 3.46811,-2.58828 5.83929,-3.27757 1.88756,-0.5487 3.64906,-0.80175 5.57628,-0.78523 z"
         style="fill:#333333;fill-opacity:1;stroke:#363636;stroke-width:1.70255;stroke-linejoin:round;stroke-dasharray:none;stroke-opacity:1"
         id="path1712" />
      <path
         d="m 435.83705,176.32571 v 34.61625 34.6162 h 6.35158 c 6.3516,0 6.3516,-6.4e-4 6.3516,-2.33466 0,-2.33377 0,-2.33275 1.42914,-1.02596 0.786,0.71865 2.4281,1.8112 3.64848,2.42901 1.22045,0.61784 2.93539,1.35749 3.81098,1.64368 0.87562,0.2862 4.02105,0.43636 6.99044,0.33374 4.34183,-0.15001 6.03707,-0.51247 8.65406,-1.85583 1.78982,-0.9187 4.42421,-3.00032 5.85415,-4.62479 1.42993,-1.62455 3.23799,-4.56744 4.01814,-6.54018 1.23342,-3.11898 1.42002,-4.78767 1.43654,-12.7962 0.0168,-8.19524 -0.14576,-9.62963 -1.47623,-13.0208 -1.05672,-2.69354 -2.54992,-4.85163 -5.09375,-7.35773 -3.04966,-3.00442 -4.24782,-3.72037 -7.85012,-4.69546 -3.0867,-0.83551 -5.31463,-1.04001 -8.13184,-0.74554 -2.13414,0.223 -5.20801,0.99293 -6.83046,1.71066 -1.62245,0.71765 -3.59619,1.91228 -4.38655,2.65479 -1.43704,1.35003 -1.4378,1.35003 -1.4378,-10.82874 v -12.17844 h -6.66919 z m 24.56039,29.21739 c 1.80364,0 4.01014,0.49338 5.30205,1.18598 1.42002,0.76131 2.78221,2.29121 3.80105,4.26991 1.39786,2.71494 1.58789,3.88453 1.58789,9.77057 0,5.8732 -0.19299,7.06748 -1.58789,9.81894 -1.05048,2.07217 -2.33695,3.52323 -3.80105,4.28734 -1.37361,0.71684 -3.56637,1.15491 -5.78091,1.15491 -2.64729,0 -4.12526,-0.37117 -5.72643,-1.43774 -1.18704,-0.7906 -2.73016,-2.57699 -3.42883,-3.96978 -1.04986,-2.09276 -1.27034,-3.7995 -1.27034,-9.83626 0,-6.80239 0.11913,-7.5068 1.72561,-10.23951 1.05371,-1.79249 2.57366,-3.33733 3.90648,-3.96974 1.2001,-0.5695 3.57305,-1.03462 5.27237,-1.03462 z"
         style="fill:#333333;fill-opacity:1;stroke:#363636;stroke-width:1.70255;stroke-linejoin:round;stroke-dasharray:none;stroke-opacity:1"
         id="path1705" />
      <path
         d="m 490.14327,176.32195 0.20333,6.03529 0.20213,6.03654 h 6.30817 l 6.30694,-0.008 v -6.03403 -6.03402 h -6.51039 z"
         style="fill:#333333;fill-opacity:1;stroke:#363636;stroke-width:1.70255;stroke-linejoin:round;stroke-dasharray:none;stroke-opacity:1"
         id="path1704" />
      <g
         id="g1"
         transform="matrix(2.4006073,0,0,2.4006073,-149.69493,-225.01822)">
        <path
           d="m 131.70838,174.04291 c -1.39878,0 -2.46574,0.17007 -3.50417,0.55861 -0.82122,0.30726 -1.98178,0.91223 -2.57866,1.34461 -0.59684,0.43236 -1.43883,1.27434 -1.87121,1.87122 -0.43236,0.59684 -1.04198,1.75723 -1.35496,2.57865 -0.36123,0.94811 -0.61812,2.3636 -0.70278,3.87522 -0.0965,1.72199 -0.0122,2.8539 0.30437,4.08863 0.24067,0.93909 0.70189,2.23817 1.02473,2.88666 0.32285,0.64849 1.08003,1.68704 1.6831,2.30838 0.60309,0.62135 1.71056,1.4409 2.46083,1.82108 0.75028,0.38021 2.04272,0.78242 2.87219,0.89347 0.82944,0.11113 1.92463,0.16304 2.43395,0.11576 0.50933,-0.0473 1.40338,-0.14611 1.98644,-0.21961 0.58309,-0.0735 1.65463,-0.41063 2.38125,-0.7488 0.7266,-0.33813 1.80216,-1.13871 2.39004,-1.77921 0.5879,-0.64053 1.34588,-1.73617 1.68415,-2.43502 0.33827,-0.69881 0.56184,-1.32381 0.49712,-1.38853 -0.0647,-0.0647 -1.1799,-0.22627 -2.4779,-0.35915 -1.47711,-0.1512 -2.39427,-0.14755 -2.45152,0.009 -0.0503,0.13779 -0.38082,0.59473 -0.73483,1.01544 -0.35401,0.42074 -1.17406,0.9674 -1.82213,1.21491 -0.79158,0.30226 -1.62028,0.40741 -2.52542,0.32041 -0.74107,-0.0712 -1.66635,-0.36142 -2.05568,-0.64492 -0.38934,-0.2835 -0.97587,-1.03976 -1.30329,-1.68053 -0.32742,-0.64076 -0.59531,-1.61604 -0.59531,-2.1673 0,-1.00227 0,-1.00201 7.14375,-1.00201 h 7.14375 v -1.79162 c 0,-0.98542 -0.22458,-2.60213 -0.49919,-3.59254 -0.27464,-0.99042 -0.93811,-2.43777 -1.47434,-3.21636 -0.5362,-0.77856 -1.59107,-1.83351 -2.34455,-2.34405 -0.75351,-0.51051 -1.89391,-1.0641 -2.5342,-1.23039 -0.64032,-0.16629 -2.06936,-0.30231 -3.17553,-0.30231 z m 0.11525,4.08191 c 0.1887,-0.003 0.38769,0.0135 0.60873,0.0419 0.63087,0.081 1.50809,0.40423 1.94923,0.71831 0.44112,0.31412 1.0236,1.05924 1.2945,1.65571 0.27088,0.59648 0.49499,1.29305 0.49816,1.54771 0.005,0.42243 -0.37536,0.46302 -4.34133,0.46302 -4.34716,0 -4.34729,0 -4.11396,-0.81391 0.12833,-0.44746 0.45019,-1.19161 0.7152,-1.65365 0.26503,-0.46204 1.01505,-1.11532 1.66656,-1.45211 0.68479,-0.35388 1.15683,-0.50273 1.72291,-0.50694 z"
           style="fill:#333333;fill-opacity:1;stroke:#363636;stroke-width:0.709217;stroke-linejoin:round;stroke-dasharray:none;stroke-opacity:1"
           id="path1697" />
        <path
           d="m 226.12276,174.03566 c -0.59859,-0.003 -1.20689,0.0262 -1.68103,0.0832 -0.94826,0.11417 -2.32499,0.46601 -3.05924,0.78187 -0.85312,0.367 -1.85087,1.1317 -2.76468,2.11873 -0.86789,0.93742 -1.67109,2.14635 -2.04277,3.07525 -0.52451,1.31064 -0.61304,2.00575 -0.61754,4.83796 -0.005,2.81845 0.0845,3.54195 0.6015,4.89479 0.33367,0.87313 1.01063,2.14135 1.50482,2.81842 0.49419,0.67704 1.33223,1.56192 1.86243,1.96631 0.5302,0.40441 1.57964,0.94779 2.33164,1.20766 0.9162,0.3166 2.17101,0.4753 3.80442,0.48112 1.86092,0.007 2.79646,-0.1261 3.95531,-0.55967 0.88484,-0.33108 2.03332,-1.04942 2.75333,-1.72289 0.67932,-0.63543 1.60769,-1.85486 2.06343,-2.70992 0.82862,-1.55464 0.82873,-1.55458 -0.031,-1.70479 -0.47286,-0.0826 -1.5258,-0.17645 -2.33989,-0.20825 -1.42066,-0.0555 -1.51858,-0.0151 -2.43758,1.002 -0.56584,0.62632 -1.37988,1.18663 -1.99007,1.36943 -0.5679,0.17016 -1.49942,0.30901 -2.07015,0.30901 -0.57076,0 -1.56919,-0.26789 -2.21848,-0.59531 -0.78351,-0.3951 -1.32982,-0.90673 -1.6247,-1.52136 -0.24437,-0.50932 -0.5257,-1.49158 -0.62529,-2.18281 l -0.1814,-1.25677 h 7.17373 7.17373 v -1.79626 c 0,-0.98806 -0.17775,-2.48017 -0.39531,-3.31557 -0.2176,-0.83537 -0.64239,-2.00266 -0.94414,-2.59416 -0.30179,-0.5915 -1.06503,-1.59163 -1.69601,-2.2226 -0.63095,-0.63096 -1.63277,-1.39481 -2.22623,-1.69757 -0.59346,-0.30274 -1.78909,-0.64765 -2.65721,-0.76637 -0.43405,-0.0593 -1.02304,-0.09 -1.62161,-0.0915 z m -0.22738,4.06074 c 0.18238,-0.003 0.36949,0.0106 0.56896,0.0372 0.59587,0.0799 1.39147,0.37367 1.76787,0.65268 0.37639,0.279 0.95036,0.97258 1.27537,1.54098 0.32504,0.56838 0.59267,1.30144 0.59531,1.62886 0.004,0.59266 -0.013,0.59531 -4.26228,0.59531 -4.2664,0 -4.2659,0 -4.10001,-0.82992 0.0913,-0.45625 0.4081,-1.22137 0.70435,-1.70069 0.3043,-0.49239 1.06003,-1.12421 1.73736,-1.45211 0.66212,-0.32052 1.16591,-0.46516 1.71307,-0.47231 z"
           style="fill:#333333;fill-opacity:1;stroke:#363636;stroke-width:0.709217;stroke-linejoin:round;stroke-dasharray:none;stroke-opacity:1"
           id="path1696" />
        <path
           d="m 169.76239,174.46717 -3.04633,0.006 c -2.58154,0.005 -3.03041,0.0669 -2.93884,0.40413 0.0595,0.21889 1.91125,5.04994 4.11499,10.73575 2.20374,5.68582 4.00397,10.62692 4.00079,10.98021 -0.003,0.3533 -0.23209,1.14046 -0.50848,1.74927 -0.30114,0.66326 -0.82362,1.27304 -1.30381,1.52135 -0.445,0.23014 -1.45425,0.41445 -2.26962,0.41445 -1.46833,0 -1.46865,-2.1e-4 -1.46865,2.09806 0,1.96562 0.0376,2.10537 0.59531,2.21279 0.32742,0.0631 1.46265,0.13105 2.52233,0.15089 1.21743,0.0228 2.28886,-0.1149 2.91041,-0.37414 0.54105,-0.22567 1.38116,-0.79121 1.86709,-1.25677 0.48593,-0.46559 1.17917,-1.4251 1.54046,-2.13217 0.36129,-0.70708 1.35093,-3.26692 2.19935,-5.68855 0.84841,-2.42162 2.86385,-8.0533 4.47881,-12.515 1.61496,-4.46169 2.93574,-8.15263 2.93574,-8.20208 0,-0.0495 -1.33459,-0.0899 -2.96418,-0.0899 h -2.96313 l -2.30735,7.10137 c -1.26907,3.90575 -2.34963,7.14361 -2.40141,7.19542 -0.0518,0.0518 -0.59486,-1.35787 -1.20663,-3.13261 -0.61174,-1.77475 -1.71394,-5.0159 -2.44946,-7.20268 z"
           style="fill:#333333;fill-opacity:1;stroke:#363636;stroke-width:0.709217;stroke-linejoin:round;stroke-dasharray:none;stroke-opacity:1"
           id="path1701" />
        <path
           d="m 195.5789,174.21705 c -2.71031,0 -3.35876,0.0848 -4.43177,0.58032 -0.69133,0.31929 -1.89151,1.18065 -2.66703,1.9141 -0.77555,0.73345 -1.7267,1.9808 -2.11407,2.77193 -0.38738,0.79116 -0.88387,2.12791 -1.10329,2.97035 -0.21944,0.84243 -0.39947,2.19612 -0.39947,3.0081 0,0.81198 0.17825,2.15979 0.39585,2.99516 0.21759,0.83539 0.64563,2.00824 0.95086,2.60657 0.30525,0.5983 1.07624,1.6451 1.71357,2.32645 0.63733,0.68136 1.83261,1.56869 2.65618,1.97197 0.92252,0.4517 2.16955,0.80079 3.24837,0.90847 0.96305,0.0961 2.47655,0.10179 3.36312,0.013 0.88659,-0.0888 2.26594,-0.46083 3.06543,-0.82683 0.79949,-0.36602 1.88891,-1.10085 2.42104,-1.63298 0.53213,-0.53213 1.21812,-1.45886 1.52445,-2.0593 0.30631,-0.60045 0.71628,-1.54231 0.91054,-2.09291 0.35322,-1.00108 0.35285,-1.00121 -1.01854,-1.14049 -0.75427,-0.0766 -1.94215,-0.18909 -2.63964,-0.25011 -1.26812,-0.11094 -1.26762,-0.11078 -1.91976,1.17616 -0.35867,0.70783 -0.94462,1.47854 -1.30173,1.71254 -0.35713,0.23399 -1.12278,0.48879 -1.70119,0.56639 -0.5784,0.0776 -1.4782,0.0606 -1.99988,-0.0372 -0.52162,-0.0979 -1.35665,-0.53644 -1.85571,-0.97459 -0.54665,-0.47998 -1.13368,-1.39472 -1.4769,-2.30169 -0.4686,-1.23825 -0.54668,-1.88092 -0.43926,-3.62199 0.0718,-1.16416 0.33515,-2.62315 0.58549,-3.24217 0.25038,-0.619 0.80489,-1.41984 1.23198,-1.77922 0.42712,-0.35938 1.24183,-0.79243 1.81023,-0.96274 0.80783,-0.24201 1.29961,-0.23543 2.25309,0.0315 0.81176,0.22731 1.42499,0.61638 1.83398,1.16274 0.33798,0.45151 0.69882,1.09691 0.8015,1.43452 0.17778,0.58438 0.27104,0.60642 1.94874,0.45423 0.96922,-0.0879 2.27391,-0.22354 2.89904,-0.30125 1.01695,-0.12639 1.11913,-0.20177 0.97099,-0.71832 -0.0911,-0.3175 -0.46029,-1.19819 -0.82063,-1.95699 -0.36033,-0.7588 -1.18811,-1.84904 -1.83967,-2.42258 -0.65157,-0.57353 -1.74665,-1.3218 -2.43293,-1.66295 -1.10019,-0.54685 -1.6238,-0.62011 -4.42298,-0.62011 z"
           style="fill:#333333;fill-opacity:1;stroke:#363636;stroke-width:0.709217;stroke-linejoin:round;stroke-dasharray:none;stroke-opacity:1"
           id="path1700" />
        <path
           d="m 154.17161,174.21705 c -2.62657,0 -3.23012,0.0849 -4.41574,0.62114 -0.82701,0.37404 -1.96358,1.23928 -2.85618,2.17506 -0.81528,0.85476 -1.73344,2.12225 -2.0407,2.81689 -0.30726,0.69461 -0.7176,1.85909 -0.91157,2.58744 -0.19399,0.72834 -0.35198,2.09838 -0.34933,3.04427 0.003,0.94588 0.12359,2.24184 0.2708,2.88044 0.14721,0.63857 0.56912,1.79808 0.93739,2.57659 0.3683,0.77848 1.22727,1.97294 1.90842,2.65409 0.68114,0.68114 1.87629,1.53069 2.65617,1.88774 0.77989,0.35703 2.03021,0.73846 2.77863,0.84802 0.74843,0.10959 1.42018,0.2105 1.49294,0.22426 0.0728,0.0138 0.99229,-0.0867 2.0433,-0.22323 1.06066,-0.13779 2.48594,-0.53975 3.20341,-0.90331 0.71094,-0.36026 1.82883,-1.25145 2.4841,-1.98025 0.70109,-0.77978 1.43917,-1.98707 1.79316,-2.93365 0.33086,-0.88471 0.53054,-1.67965 0.44389,-1.7663 -0.0866,-0.0866 -1.24553,-0.23413 -2.57503,-0.32816 -2.41729,-0.17092 -2.41689,-0.17095 -3.06181,1.10175 -0.3601,0.71056 -1.02066,1.50151 -1.49553,1.79109 -0.53078,0.32362 -1.3266,0.51988 -2.11614,0.51988 -0.69591,0 -1.66222,-0.1651 -2.14768,-0.36795 -0.48545,-0.20283 -1.18171,-0.76838 -1.54667,-1.25677 -0.36499,-0.48837 -0.81098,-1.348 -0.99116,-1.90995 -0.20402,-0.63638 -0.28469,-1.93365 -0.21447,-3.43958 0.0757,-1.62415 0.26877,-2.7214 0.58912,-3.34346 0.26231,-0.50933 0.78558,-1.2558 1.16221,-1.65831 0.37664,-0.40251 1.12845,-0.85119 1.67122,-0.99734 0.63285,-0.17039 1.38191,-0.1768 2.08825,-0.018 0.60581,0.13612 1.38776,0.51599 1.73736,0.84439 0.34956,0.32842 0.78105,0.99994 0.95911,1.49241 0.32377,0.89535 0.32412,0.89564 2.05155,0.73951 0.9501,-0.0859 2.23303,-0.21889 2.8515,-0.2956 0.61846,-0.0767 1.12453,-0.28125 1.12188,-0.45423 -0.003,-0.17299 -0.29038,-0.93287 -0.64233,-1.68879 -0.35194,-0.75594 -1.13749,-1.91428 -1.74561,-2.57399 -0.60809,-0.65972 -1.77718,-1.52935 -2.59831,-1.93271 -1.36888,-0.67244 -1.74647,-0.73329 -4.53615,-0.73329 z"
           style="fill:#333333;fill-opacity:1;stroke:#363636;stroke-width:0.709217;stroke-linejoin:round;stroke-dasharray:none;stroke-opacity:1"
           id="path1699" />
        <path
           d="m 120.48634,174.08476 c -0.62979,0 -1.68354,0.18302 -2.34148,0.4072 -0.65794,0.22418 -1.56877,0.79211 -2.02415,1.26195 -0.45537,0.46982 -1.00134,1.32808 -1.21338,1.90738 -0.38563,1.05326 -0.38557,1.0536 -0.40409,-1.13844 l -0.019,-2.1921 -2.71198,0.0754 -2.71198,0.0755 -0.0687,10.78177 -0.0692,10.78177 h 2.75693 2.75643 l 0.0951,-6.28385 c 0.0864,-5.71085 0.14613,-6.39509 0.65267,-7.4993 0.30658,-0.66826 0.95928,-1.5017 1.45056,-1.85208 0.73313,-0.52287 1.21549,-0.63665 2.69078,-0.63665 1.58647,0 1.80996,-0.0621 1.90169,-0.52916 0.0572,-0.29104 0.1714,-1.57097 0.25427,-2.84427 0.15063,-2.31511 0.15078,-2.31511 -0.99425,-2.31511 z"
           style="fill:#333333;fill-opacity:1;stroke:#363636;stroke-width:0.709217;stroke-linejoin:round;stroke-dasharray:none;stroke-opacity:1"
           id="path1698" />
        <path
           d="m 207.61744,165.88268 v 15.08125 15.08125 h 2.77812 2.77813 v -15.08125 -15.08125 h -2.77813 z"
           style="fill:#333333;fill-opacity:1;stroke:#363636;stroke-width:0.709217;stroke-linejoin:round;stroke-dasharray:none;stroke-opacity:1"
           id="path1694" />
      </g>
    </g>
    <path
       fill="#f05133"
       d="M 82.62161,194.48491 58.973338,170.83954 c -1.360673,-1.36191 -3.569335,-1.36191 -4.931701,0 l -4.910297,4.91078 6.228557,6.22855 c 1.447985,-0.4889 3.107663,-0.1611 4.261352,0.9928 1.159669,1.16109 1.485106,2.83495 0.983959,4.28778 l 6.003211,6.00324 c 1.452377,-0.50049 3.128089,-0.17714 4.28781,0.98462 1.621367,1.62089 1.621367,4.24738 0,5.8687 -1.621604,1.62184 -4.248096,1.62184 -5.870601,0 -1.219147,-1.22008 -1.520692,-3.01136 -0.903208,-4.51345 l -5.598662,-5.59866 v 14.73282 c 0.395287,0.19568 0.768323,0.45682 1.097729,0.7848 1.620891,1.62071 1.620891,4.24672 0,5.87013 -1.621366,1.62065 -4.249049,1.62065 -5.868696,0 -1.621129,-1.62327 -1.621129,-4.24929 0,-5.87013 0.400632,-0.39992 0.864208,-0.70263 1.358847,-0.90551 v -14.86974 c -0.494877,-0.20204 -0.957897,-0.5025 -1.359138,-0.90562 -1.227931,-1.22697 -1.523683,-3.02918 -0.893921,-4.53707 l -6.140133,-6.14109 -16.213667,16.2132 c -1.362313,1.36292 -1.362313,3.57158 0,4.93357 l 23.646871,23.64545 c 1.361414,1.36189 3.569309,1.36189 4.932627,0 L 82.621822,199.421 c 1.361889,-1.36258 1.361889,-3.5719 0,-4.93408"
       id="path4"
       style="fill:#e25b41;fill-opacity:1;stroke:none;stroke-width:0.47539" />
    <path
       id="rect1"
       style="fill:#1a1a1a;stroke:none;stroke-width:0.588235"
       sodipodi:type="inkscape:offset"
       inkscape:radius="2.2217393"
       inkscape:original="M 9.3457031 146.16992 L 9.3457031 147.3457 L 9.3457031 162.46875 L 103.89844 162.46875 L 103.89844 146.16992 L 9.3457031 146.16992 z "
       d="m 9.3457031,143.94727 a 2.2219615,2.2219615 0 0 0 -2.2226562,2.22265 v 1.17578 15.12305 a 2.2219615,2.2219615 0 0 0 2.2226562,2.22266 H 103.89844 a 2.2219615,2.2219615 0 0 0 2.22265,-2.22266 v -16.29883 a 2.2219615,2.2219615 0 0 0 -2.22265,-2.22265 z"
       transform="matrix(0.90150352,0,0,0.67869421,6.2702573,49.631183)"
       inkscape:transform-center-x="-42.466016"
       inkscape:transform-center-y="-6.559791" />
  </g>
</svg>
